<svg width="24" height="23" viewBox="0 0 24 23" fill="none" xmlns="http://www.w3.org/2000/svg">
<path d="M19.5224 17.1872C19.1029 16.1935 18.4941 15.2909 17.7299 14.5296C16.9681 13.7662 16.0656 13.1575 15.0723 12.7371C15.0634 12.7327 15.0546 12.7305 15.0457 12.726C16.4312 11.7252 17.3319 10.0951 17.3319 8.2559C17.3319 5.20911 14.8633 2.74055 11.8165 2.74055C8.76972 2.74055 6.30116 5.20911 6.30116 8.2559C6.30116 10.0951 7.20185 11.7252 8.58736 12.7282C8.57846 12.7327 8.56957 12.7349 8.56067 12.7393C7.56435 13.1597 6.67033 13.7624 5.90307 14.5318C5.13962 15.2937 4.53092 16.1962 4.11058 17.1894C3.69765 18.1619 3.47494 19.2044 3.45452 20.2607C3.45393 20.2844 3.45809 20.308 3.46677 20.3301C3.47544 20.3522 3.48845 20.3724 3.50503 20.3894C3.52161 20.4064 3.54143 20.4199 3.56331 20.4291C3.58519 20.4383 3.60869 20.4431 3.63244 20.443H4.9668C5.06465 20.443 5.14249 20.3652 5.14471 20.2696C5.18919 18.5527 5.87861 16.9448 7.09732 15.7261C8.35829 14.4651 10.0329 13.7713 11.8165 13.7713C13.6001 13.7713 15.2747 14.4651 16.5357 15.7261C17.7544 16.9448 18.4438 18.5527 18.4883 20.2696C18.4905 20.3674 18.5684 20.443 18.6662 20.443H20.0006C20.0243 20.4431 20.0478 20.4383 20.0697 20.4291C20.0916 20.4199 20.1114 20.4064 20.128 20.3894C20.1446 20.3724 20.1576 20.3522 20.1662 20.3301C20.1749 20.308 20.1791 20.2844 20.1785 20.2607C20.1563 19.1976 19.9361 18.1635 19.5224 17.1872ZM11.8165 12.0811C10.7957 12.0811 9.83498 11.683 9.11221 10.9602C8.38943 10.2374 7.99134 9.27668 7.99134 8.2559C7.99134 7.23511 8.38943 6.27438 9.11221 5.5516C9.83498 4.82882 10.7957 4.43074 11.8165 4.43074C12.8373 4.43074 13.798 4.82882 14.5208 5.5516C15.2436 6.27438 15.6417 7.23511 15.6417 8.2559C15.6417 9.27668 15.2436 10.2374 14.5208 10.9602C13.798 11.683 12.8373 12.0811 11.8165 12.0811Z" fill="#EEEEEE"/>
</svg>
