<svg width="24" height="23" viewBox="0 0 24 23" fill="none" xmlns="http://www.w3.org/2000/svg">
<path d="M7.86012 22.7976C8.85831 22.7976 9.66751 21.9884 9.66751 20.9902C9.66751 19.992 8.85831 19.1828 7.86012 19.1828C6.86193 19.1828 6.05273 19.992 6.05273 20.9902C6.05273 21.9884 6.86193 22.7976 7.86012 22.7976Z" fill="#EEEEEE"/>
<path d="M17.2586 22.7976C18.2568 22.7976 19.0659 21.9884 19.0659 20.9902C19.0659 19.992 18.2568 19.1828 17.2586 19.1828C16.2604 19.1828 15.4512 19.992 15.4512 20.9902C15.4512 21.9884 16.2604 22.7976 17.2586 22.7976Z" fill="#EEEEEE"/>
<path d="M19.7889 9.42293C18.3508 9.42293 16.9717 8.85167 15.9548 7.83482C14.938 6.81797 14.3667 5.43882 14.3667 4.00077H4.75867L4.43334 2.96695C4.3976 2.85595 4.33554 2.75523 4.25246 2.67341C4.16937 2.59158 4.06772 2.53107 3.95619 2.49703L0.992073 1.58611C0.900931 1.5581 0.805164 1.54832 0.710242 1.55732C0.61532 1.56632 0.5231 1.59394 0.438849 1.63858C0.268696 1.72874 0.141328 1.8828 0.0847647 2.06687C0.0282015 2.25094 0.0470766 2.44994 0.137237 2.62009C0.227398 2.79025 0.38146 2.91762 0.56553 2.97418L3.16094 3.76943L6.47207 14.2306L5.29365 15.1993L5.19967 15.2933C4.90824 15.6308 4.74313 16.059 4.73258 16.5047C4.72203 16.9505 4.8667 17.3861 5.14183 17.7369C5.33888 17.9765 5.58927 18.1667 5.87298 18.2923C6.15669 18.4178 6.46585 18.4752 6.77571 18.4599H18.8418C19.0336 18.4599 19.2174 18.3837 19.353 18.2481C19.4886 18.1125 19.5648 17.9286 19.5648 17.7369C19.5648 17.5452 19.4886 17.3613 19.353 17.2257C19.2174 17.0901 19.0336 17.014 18.8418 17.014H6.66004C6.57679 17.0111 6.49568 16.9868 6.42454 16.9435C6.3534 16.9002 6.29465 16.8392 6.25395 16.7665C6.21325 16.6938 6.19198 16.6119 6.19219 16.5286C6.19241 16.4453 6.2141 16.3635 6.25518 16.291L7.9975 14.8451H19.1527C19.3178 14.8499 19.4797 14.798 19.6112 14.698C19.7427 14.5981 19.8361 14.4561 19.8756 14.2956L21.1119 9.23496C20.6803 9.352 20.236 9.41514 19.7889 9.42293Z" fill="#EEEEEE"/>
<path d="M19.789 7.61555C21.7854 7.61555 23.4037 5.99716 23.4037 4.00077C23.4037 2.00439 21.7854 0.386002 19.789 0.386002C17.7926 0.386002 16.1742 2.00439 16.1742 4.00077C16.1742 5.99716 17.7926 7.61555 19.789 7.61555Z" fill="#FF0000"/>
</svg>
